<?xml version="1.0" encoding="UTF-8" standalone="no"?>
<!DOCTYPE svg PUBLIC "-//W3C//DTD SVG 1.1//EN"
 "http://www.w3.org/Graphics/SVG/1.1/DTD/svg11.dtd">
<!-- Generated by graphviz version 11.0.0 (20240428.1522)
 -->
<!-- Title: G Pages: 1 -->
<svg width="504pt" height="44pt"
 viewBox="0.00 0.00 503.75 44.00" xmlns="http://www.w3.org/2000/svg" xmlns:xlink="http://www.w3.org/1999/xlink">
<g id="graph0" class="graph" transform="scale(1 1) rotate(0) translate(4 40)">
<title>G</title>
<polygon fill="white" stroke="none" points="-4,4 -4,-40 499.75,-40 499.75,4 -4,4"/>
<!-- aws_eip.lb -->
<g id="node1" class="node">
<title>aws_eip.lb</title>
<polygon fill="none" stroke="black" points="262.25,-36 180.25,-36 180.25,0 262.25,0 262.25,-36"/>
<text text-anchor="middle" x="221.25" y="-13.32" font-family="sans-serif" font-size="14.00">aws_eip.lb</text>
</g>
<!-- aws_instance.myec2 -->
<g id="node2" class="node">
<title>aws_instance.myec2</title>
<polygon fill="none" stroke="black" points="144.25,-36 0,-36 0,0 144.25,0 144.25,-36"/>
<text text-anchor="middle" x="72.12" y="-13.32" font-family="sans-serif" font-size="14.00">aws_instance.myec2</text>
</g>
<!-- aws_eip.lb&#45;&gt;aws_instance.myec2 -->
<g id="edge1" class="edge">
<title>aws_eip.lb&#45;&gt;aws_instance.myec2</title>
<path fill="none" stroke="black" d="M180.05,-18C172.5,-18 164.36,-18 156.06,-18"/>
<polygon fill="black" stroke="black" points="156.19,-14.5 146.19,-18 156.19,-21.5 156.19,-14.5"/>
</g>
<!-- aws_security_group.allow_tls -->
<g id="node3" class="node">
<title>aws_security_group.allow_tls</title>
<polygon fill="none" stroke="black" points="495.75,-36 298.25,-36 298.25,0 495.75,0 495.75,-36"/>
<text text-anchor="middle" x="397" y="-13.32" font-family="sans-serif" font-size="14.00">aws_security_group.allow_tls</text>
</g>
<!-- aws_security_group.allow_tls&#45;&gt;aws_eip.lb -->
<g id="edge2" class="edge">
<title>aws_security_group.allow_tls&#45;&gt;aws_eip.lb</title>
<path fill="none" stroke="black" d="M297.95,-18C289.67,-18 281.53,-18 273.83,-18"/>
<polygon fill="black" stroke="black" points="274.04,-14.5 264.04,-18 274.04,-21.5 274.04,-14.5"/>
</g>
</g>
</svg>
